<mxfile host="app.diagrams.net" modified="2023-05-26T12:33:38.103Z" agent="Mozilla/5.0 (Windows NT 10.0; Win64; x64) AppleWebKit/537.36 (KHTML, like Gecko) Chrome/113.0.0.0 Safari/537.36" version="21.3.2" etag="BHMJqmnBfqWSUljD5DNp" type="github">
  <diagram name="Sayfa -1" id="ASmcWqFwatuPjNXZ_Eyt">
    <mxGraphModel>
      <root>
        <mxCell id="0" />
        <mxCell id="1" parent="0" />
      </root>
    </mxGraphModel>
  </diagram>
</mxfile>
